<?xml version="1.0" encoding="iso-8859-1"?>
<!-- Generator: Adobe Illustrator 19.0.0, SVG Export Plug-In . SVG Version: 6.00 Build 0)  -->
<svg version="1.1" id="Capa_1" xmlns="http://www.w3.org/2000/svg" xmlns:xlink="http://www.w3.org/1999/xlink" x="0px" y="0px"
	 viewBox="0 0 511.999 511.999" style="enable-background:new 0 0 511.999 511.999;" xml:space="preserve">
<circle style="fill:#EA971E;" cx="256" cy="255.997" r="255.997"/>
<path style="fill:#C27526;" d="M256.003,65.602L97.866,173.103h23.682v22.907h9.944v139.278h-9.944v22.907h-14.799v26.584
	l126.173,126.173c7.605,0.68,15.3,1.047,23.081,1.047c136.502,0,248.037-106.839,255.58-241.453l-97.443-97.443l0,0h0.001
	L256.003,65.602L256.003,65.602z"/>
<rect x="230.235" y="184.556" style="fill:#F9ED9D;" width="51.538" height="157.364"/>
<rect x="256" y="184.556" style="fill:#EA971E;" width="25.774" height="157.364"/>
<polygon style="fill:#C27526;" points="97.866,173.103 256.003,65.602 414.139,173.103 "/>
<rect x="220.284" y="173.098" style="fill:#FFFFFF;" width="71.43" height="22.907"/>
<rect x="256" y="173.098" style="fill:#F4C479;" width="35.715" height="22.907"/>
<rect x="220.284" y="335.289" style="fill:#FFFFFF;" width="71.43" height="22.907"/>
<rect x="328.977" y="184.556" style="fill:#EA971E;" width="51.538" height="157.364"/>
<g>
	<rect x="319.026" y="173.098" style="fill:#F4C479;" width="71.43" height="22.907"/>
	<rect x="319.026" y="335.289" style="fill:#F4C479;" width="71.43" height="22.907"/>
</g>
<rect x="131.494" y="184.556" style="fill:#F9ED9D;" width="51.538" height="157.364"/>
<g>
	<rect x="121.553" y="173.098" style="fill:#FFFFFF;" width="71.43" height="22.907"/>
	<rect x="121.553" y="335.289" style="fill:#FFFFFF;" width="71.43" height="22.907"/>
</g>
<rect x="106.745" y="358.196" style="fill:#F9ED9D;" width="298.51" height="26.584"/>
<polygon style="fill:#7E4F1F;" points="256.003,65.602 256.003,173.103 414.14,173.103 "/>
<rect x="256" y="335.289" style="fill:#F4C479;" width="35.715" height="22.907"/>
<rect x="256" y="358.196" style="fill:#EA971E;" width="149.255" height="26.584"/>
<g>
</g>
<g>
</g>
<g>
</g>
<g>
</g>
<g>
</g>
<g>
</g>
<g>
</g>
<g>
</g>
<g>
</g>
<g>
</g>
<g>
</g>
<g>
</g>
<g>
</g>
<g>
</g>
<g>
</g>
</svg>
