<?xml version="1.0" encoding="iso-8859-1"?>
<!-- Generator: Adobe Illustrator 19.0.0, SVG Export Plug-In . SVG Version: 6.00 Build 0)  -->
<svg version="1.1" id="Layer_1" xmlns="http://www.w3.org/2000/svg" xmlns:xlink="http://www.w3.org/1999/xlink" x="0px" y="0px"
	 viewBox="0 0 512.002 512.002" style="enable-background:new 0 0 512.002 512.002;" xml:space="preserve">
<circle style="fill:#BDFBFD;" cx="256.001" cy="256" r="256"/>
<path style="fill:#00E4ED;" d="M512.001,256c0-0.521-0.017-1.04-0.019-1.56L331.853,74.311l-10.912,21.94h-92.993l-21.94-21.94
	l-7.47,67.458L256.001,256l-75.852,181.689l74.292,74.292c0.521,0.003,1.038,0.021,1.56,0.021
	C397.385,512,512.001,397.384,512.001,256z"/>
<rect x="200.939" y="93.367" style="fill:#FF6178;" width="110.114" height="13.791"/>
<rect x="255.432" y="93.367" style="fill:#FF0647;" width="55.63" height="13.791"/>
<rect x="204.87" y="127.983" style="fill:#FF6178;" width="102.245" height="13.791"/>
<rect x="255.432" y="127.983" style="fill:#FF0647;" width="51.698" height="13.791"/>
<rect x="204.87" y="162.582" style="fill:#FF6178;" width="102.245" height="13.791"/>
<rect x="255.432" y="162.582" style="fill:#FF0647;" width="51.698" height="13.791"/>
<rect x="218.247" y="197.198" style="fill:#FF6178;" width="75.509" height="13.791"/>
<rect x="255.432" y="197.198" style="fill:#FF0647;" width="38.322" height="13.791"/>
<rect x="200.939" y="404.842" style="fill:#FF6178;" width="110.114" height="13.791"/>
<rect x="255.432" y="404.842" style="fill:#FF0647;" width="55.63" height="13.791"/>
<rect x="204.87" y="370.226" style="fill:#FF6178;" width="102.245" height="13.791"/>
<rect x="255.432" y="370.226" style="fill:#FF0647;" width="51.698" height="13.791"/>
<rect x="204.87" y="335.627" style="fill:#FF6178;" width="102.245" height="13.791"/>
<rect x="255.432" y="335.627" style="fill:#FF0647;" width="51.698" height="13.791"/>
<rect x="218.247" y="301.011" style="fill:#FF6178;" width="75.509" height="13.791"/>
<rect x="255.432" y="301.011" style="fill:#FF0647;" width="38.322" height="13.791"/>
<path style="fill:#005E8B;" d="M206.008,437.689h-25.859c0-94.885,33.158-142.757,65.224-189.05
	c31.175-45.009,60.621-87.523,60.621-174.328h25.859c0,94.886-33.158,142.757-65.224,189.05
	C235.454,308.371,206.008,350.885,206.008,437.689z"/>
<g>
	<path style="fill:#00447D;" d="M331.853,74.311h-25.859c0,77.379-23.402,119.561-50.567,159.694v45.687
		c3.677-5.461,7.425-10.878,11.202-16.331C298.695,217.067,331.853,169.196,331.853,74.311z"/>
	<path style="fill:#00447D;" d="M331.853,437.689h-25.859c0-86.804-29.446-129.317-60.621-174.327
		c-32.066-46.295-65.224-94.167-65.224-189.052h25.859c0,86.804,29.446,129.317,60.621,174.327
		C298.695,294.933,331.853,342.804,331.853,437.689z"/>
</g>
<path style="fill:#062964;" d="M331.853,437.689c0-94.885-33.158-142.757-65.224-189.05c-3.777-5.453-7.525-10.869-11.202-16.331
	v45.687c27.165,40.131,50.567,82.313,50.567,159.694L331.853,437.689L331.853,437.689z"/>
<g>
</g>
<g>
</g>
<g>
</g>
<g>
</g>
<g>
</g>
<g>
</g>
<g>
</g>
<g>
</g>
<g>
</g>
<g>
</g>
<g>
</g>
<g>
</g>
<g>
</g>
<g>
</g>
<g>
</g>
</svg>
