<?xml version="1.0" encoding="iso-8859-1"?>
<!-- Generator: Adobe Illustrator 19.0.0, SVG Export Plug-In . SVG Version: 6.00 Build 0)  -->
<svg version="1.1" id="Capa_1" xmlns="http://www.w3.org/2000/svg" xmlns:xlink="http://www.w3.org/1999/xlink" x="0px" y="0px"
	 viewBox="0 0 512 512" style="enable-background:new 0 0 512 512;" xml:space="preserve">
<circle style="fill:#6EE1FF;" cx="256" cy="256" r="256"/>
<path style="fill:#41A0D7;" d="M326.409,129.487H256h-70.409v58.713h-79.796v193.389l129.582,129.582
	C242.18,511.713,249.056,512,256,512c129.327,0,236.236-95.905,253.534-220.471L406.205,188.199h-21.084L326.409,129.487z"/>
<path style="fill:#F5415F;" d="M326.409,240.263H185.591V129.487h140.818V240.263z M213.755,212.1h84.491v-54.449h-84.491V212.1z"/>
<polygon style="fill:#C32850;" points="256,157.651 298.245,157.651 298.245,212.1 256,212.1 256,240.263 326.409,240.263 
	326.409,129.487 256,129.487 "/>
<rect x="105.797" y="188.199" style="fill:#FFFFFF;" width="300.416" height="193.388"/>
<rect x="256" y="188.199" style="fill:#A0EBFF;" width="150.203" height="193.388"/>
<circle style="fill:#FF6473;" cx="256" cy="284.898" r="79.793"/>
<path style="fill:#F5415F;" d="M335.796,284.895c0-44.07-35.726-79.796-79.796-79.796v159.593
	C300.07,364.691,335.796,328.965,335.796,284.895z"/>
<polygon style="fill:#FFFFFF;" points="308.69,265.13 275.764,265.13 275.764,232.206 236.236,232.206 236.236,265.13 
	203.31,265.13 203.31,304.659 236.236,304.659 236.236,337.584 275.764,337.584 275.764,304.659 308.69,304.659 "/>
<polygon style="fill:#EBEBF0;" points="275.764,232.206 256,232.206 256,337.584 275.764,337.584 275.764,304.659 308.69,304.659 
	308.69,265.13 275.764,265.13 "/>
<g>
</g>
<g>
</g>
<g>
</g>
<g>
</g>
<g>
</g>
<g>
</g>
<g>
</g>
<g>
</g>
<g>
</g>
<g>
</g>
<g>
</g>
<g>
</g>
<g>
</g>
<g>
</g>
<g>
</g>
</svg>
