<?xml version="1.0" encoding="UTF-8"?>
<svg width="185px" height="161px" viewBox="0 0 185 161" version="1.1" xmlns="http://www.w3.org/2000/svg" xmlns:xlink="http://www.w3.org/1999/xlink">
    <title>9499F188-7704-4E10-805F-FEFC834E8B2E</title>
    <defs>
        <polygon id="path-1" points="0.34398 0.17604 159.28794 0.17604 159.28794 159.12 0.34398 159.12"></polygon>
        <polygon id="path-3" points="0.309708 0.278712 40.8816 0.278712 40.8816 30.854232 0.309708 30.854232"></polygon>
        <polygon id="path-5" points="0 0.278712 26.171892 0.278712 26.171892 30.854232 0 30.854232"></polygon>
    </defs>
    <g id="Primary-Navigation-Pages" stroke="none" stroke-width="1" fill="none" fill-rule="evenodd">
        <g id="Landing" transform="translate(-469.000000, -5600.000000)">
            <g id="Group-37" transform="translate(339.000000, 5552.000000)">
                <g id="Group-68" transform="translate(222.500000, 128.500000) rotate(-360.000000) translate(-222.500000, -128.500000) translate(130.000000, 48.000000)">
                    <g id="Group-3" transform="translate(13.320000, 0.183960)">
                        <mask id="mask-2" fill="white">
                            <use xlink:href="#path-1"></use>
                        </mask>
                        <g id="Clip-2"></g>
                        <path d="M159.28794,79.647948 C159.28794,84.786588 153.79218,89.318628 152.83134,94.175388 C151.8417,99.180108 155.16666,105.464268 153.25722,110.068668 C151.31466,114.753708 144.50058,116.837748 141.71274,121.001868 C138.90366,125.197668 139.56894,132.285708 136.01106,135.843588 C132.45354,139.400748 125.3655,138.735828 121.16934,141.544908 C117.00558,144.332748 114.92154,151.146468 110.2365,153.089028 C105.6321,154.998468 99.34794,151.673508 94.34358,152.663508 C89.48682,153.623988 84.95478,159.120108 79.81614,159.120108 C74.6775,159.120108 70.14546,153.623988 65.2887,152.663508 C60.28398,151.673508 53.99982,154.998468 49.39542,153.089028 C44.71038,151.146108 42.62634,144.332388 38.46222,141.544908 C34.26642,138.735468 27.17802,139.400388 23.6205,135.843228 C20.06334,132.285348 20.72826,125.197308 17.91918,121.001508 C15.13134,116.837388 8.31762,114.753348 6.3747,110.068308 C4.46562,105.463908 7.79058,99.179748 6.80058,94.175388 C5.83974,89.318628 0.34398,84.786588 0.34398,79.647948 C0.34398,74.509308 5.83974,69.977268 6.80058,65.120508 C7.79058,60.115788 4.46562,53.831628 6.37506,49.227228 C8.31798,44.542188 15.13134,42.458148 17.91954,38.294028 C20.72826,34.098228 20.0637,27.010188 23.62086,23.452308 C27.17838,19.895148 34.26678,20.560068 38.46258,17.750988 C42.62634,14.963148 44.71074,8.149428 49.39542,6.206868 C53.99982,4.297428 60.28398,7.622388 65.2887,6.632388 C70.14546,5.671908 74.6775,0.175788 79.81614,0.175788 C84.95478,0.175788 89.48682,5.671908 94.34394,6.632388 C99.34794,7.622388 105.63246,4.297428 110.23686,6.206868 C114.92154,8.149788 117.00594,14.963508 121.1697,17.750988 C125.3655,20.560428 132.4539,19.895508 136.01142,23.452668 C139.5693,27.010548 138.90402,34.098588 141.7131,38.294388 C144.50058,42.458508 151.31466,44.542548 153.25722,49.227588 C155.16666,53.831988 151.8417,60.116148 152.83134,65.120508 C153.79218,69.977268 159.28794,74.509308 159.28794,79.647948" id="Fill-1" fill="#EB3F4E" mask="url(#mask-2)"></path>
                    </g>
                    <path d="M93.244824,15.005916 C57.300264,15.005916 28.161504,44.144316 28.161504,80.088876 C28.161504,116.033436 57.300264,145.171836 93.244824,145.171836 C129.189384,145.171836 158.327784,116.033436 158.327784,80.088876 C158.327784,44.144316 129.189384,15.005916 93.244824,15.005916 M93.244824,18.304956 C109.747944,18.304956 125.262864,24.731676 136.932264,36.401076 C148.602024,48.070476 155.028744,63.585396 155.028744,80.088876 C155.028744,96.591996 148.602024,112.107636 136.932264,123.776676 C125.262864,135.446436 109.747944,141.872796 93.244824,141.872796 C76.741704,141.872796 61.226424,135.446436 49.557024,123.776676 C37.887624,112.107636 31.460904,96.591996 31.460904,80.088876 C31.460904,63.585756 37.887624,48.070476 49.557024,36.401076 C61.226424,24.731676 76.741704,18.304956 93.244824,18.304956" id="Fill-4" fill="#FFFFFF"></path>
                    <g id="Group-8" transform="translate(144.000000, 66.063960)">
                        <mask id="mask-4" fill="white">
                            <use xlink:href="#path-3"></use>
                        </mask>
                        <g id="Clip-7"></g>
                        <polygon id="Fill-6" fill="#BF1B37" mask="url(#mask-4)" points="40.881708 30.854232 0.309708 30.854232 0.309708 0.278712 40.881708 0.278712 34.081308 15.566472"></polygon>
                    </g>
                    <g id="Group-11" transform="translate(0.000000, 67.143960)">
                        <mask id="mask-6" fill="white">
                            <use xlink:href="#path-5"></use>
                        </mask>
                        <g id="Clip-10"></g>
                        <path d="M-0.000108,30.854232 L20.410452,30.854232 C23.592492,30.854232 26.171892,28.274472 26.171892,25.092432 L26.171892,6.040512 C26.171892,2.858112 23.592492,0.278712 20.410452,0.278712 L-0.000108,0.278712 L8.598852,15.566472 L-0.000108,30.854232 Z" id="Fill-9" fill="#BF1B37" mask="url(#mask-6)"></path>
                    </g>
                    <path d="M168.294276,99.8091 L17.194356,99.8091 C15.390036,99.8091 13.926996,98.34642 13.926996,96.54174 L13.926996,65.99934 C13.926996,64.19466 15.390036,62.73198 17.194356,62.73198 L168.294276,62.73198 C170.098956,62.73198 171.561636,64.19466 171.561636,65.99934 L171.561636,96.54174 C171.561636,98.34642 170.098956,99.8091 168.294276,99.8091" id="Fill-12" fill="#D8273C"></path>
                    <polygon id="Fill-14" fill="#FFFFFF" points="54.469944 42.879888 61.388424 48.438648 60.193584 49.925448 56.659824 47.086128 59.091984 51.296688 57.945024 52.724088 53.360064 51.250248 56.865744 54.066888 55.701504 55.516248 48.783024 49.957128 49.947624 48.508128 56.760984 50.597928 53.275824 44.366688"></polygon>
                    <path d="M65.43378,42.864408 C66.00726,42.430248 66.31182,41.901768 66.34638,41.278608 C66.38166,40.655448 66.14334,40.006368 65.63178,39.330648 C65.12022,38.654928 64.56006,38.249208 63.9513,38.113488 C63.34182,37.977768 62.75034,38.126808 62.17686,38.560968 C61.5969,39.000528 61.2891,39.531168 61.25418,40.153968 C61.21962,40.777128 61.45758,41.426568 61.96914,42.102648 C62.4807,42.778368 63.04086,43.184088 63.64998,43.319808 C64.25838,43.455528 64.85346,43.303608 65.43378,42.864408 M61.03098,37.066968 C61.54254,36.669528 62.08074,36.400248 62.64522,36.258408 C63.2097,36.117288 63.76986,36.094608 64.3239,36.191448 C64.87866,36.287928 65.41074,36.497448 65.91978,36.819288 C66.42882,37.140768 66.87774,37.565208 67.26726,38.092968 C67.66902,38.611008 67.95558,39.158568 68.12694,39.736008 C68.2983,40.313088 68.35446,40.884768 68.29614,41.449968 C68.23782,42.015888 68.06502,42.552648 67.77774,43.060608 C67.49046,43.568928 67.08402,44.012088 66.55806,44.390088 C66.05262,44.782488 65.5191,45.047808 64.95786,45.187128 C64.39626,45.326448 63.83826,45.347328 63.28386,45.250848 C62.72946,45.154008 62.19774,44.944848 61.6887,44.623368 C61.17966,44.301888 60.73038,43.877088 60.34122,43.349688 C59.9391,42.831648 59.65218,42.284088 59.48118,41.706288 C59.30982,41.129208 59.25222,40.558968 59.30694,39.995568 C59.36238,39.432888 59.53338,38.897208 59.8203,38.388888 C60.10758,37.880928 60.51114,37.440288 61.03098,37.066968" id="Fill-16" fill="#FFFFFF"></path>
                    <polygon id="Fill-18" fill="#FFFFFF" points="75.283848 29.360556 78.873408 37.477116 77.118768 38.252916 71.353368 34.468596 73.696608 39.766716 71.941608 40.542876 68.351688 32.426316 70.106688 31.650156 75.876408 35.445276 73.529208 30.136356"></polygon>
                    <polygon id="Fill-20" fill="#FFFFFF" points="82.05426 29.428056 82.40274 31.082976 85.60674 30.408336 85.9599 32.086296 82.7559 32.760936 83.12886 34.533216 86.74362 33.771816 87.1191 35.555616 81.60354 36.716976 79.7751 28.032696 85.29066 26.871336 85.66902 28.667016"></polygon>
                    <polygon id="Fill-22" fill="#FFFFFF" points="90.951588 26.359596 92.867148 29.855196 94.668588 26.299476 96.778908 26.265276 93.845268 31.746636 93.901068 35.187876 91.946988 35.219556 91.890468 31.777956 88.768908 26.395236"></polygon>
                    <path d="M107.222256,29.801772 L106.629696,31.803012 L108.170856,32.258772 C108.515736,32.361012 108.803376,32.340132 109.033776,32.195412 C109.264176,32.051052 109.418976,31.845132 109.498536,31.576572 C109.575576,31.315932 109.558656,31.056372 109.447416,30.798612 C109.336536,30.540492 109.107936,30.360492 108.763056,30.258252 L107.222256,29.801772 Z M108.619056,34.968492 C108.707616,34.669332 108.681696,34.398972 108.540576,34.157052 C108.399456,33.915492 108.175176,33.748812 107.869176,33.658092 L106.224696,33.171012 L105.641856,35.137332 L107.286696,35.624412 C107.608536,35.719452 107.888976,35.709012 108.128016,35.592012 C108.367056,35.475372 108.530856,35.267292 108.619056,34.968492 L108.619056,34.968492 Z M110.367216,35.823852 C110.155896,36.536652 109.740096,37.011852 109.119816,37.249092 C108.499176,37.486692 107.759016,37.477692 106.900416,37.223532 L104.704416,36.573732 L103.324536,36.164772 L105.837336,27.678132 L107.688816,28.226412 L109.436616,28.744092 C109.850616,28.866492 110.205576,29.033892 110.500776,29.246652 C110.796696,29.459412 111.031056,29.702052 111.204936,29.974212 C111.378816,30.246372 111.483936,30.544452 111.521736,30.868452 C111.559176,31.192092 111.527136,31.526532 111.424896,31.871772 C111.281976,32.354892 111.058776,32.726412 110.756736,32.987052 C110.454696,33.247692 110.108376,33.403932 109.717776,33.455052 C110.031336,33.748092 110.255256,34.089372 110.390256,34.479612 C110.524896,34.869492 110.516976,35.317692 110.367216,35.823852 L110.367216,35.823852 Z" id="Fill-24" fill="#FFFFFF"></path>
                    <path d="M117.210852,37.878912 L117.664452,35.193672 L115.669692,37.047672 L117.210852,37.878912 Z M116.921772,39.576312 L114.399252,38.215872 L112.951692,39.560832 L111.167892,38.598552 L118.167372,32.290632 L119.835252,33.189912 L118.398492,42.498432 L116.583012,41.518872 L116.921772,39.576312 Z" id="Fill-26" fill="#FFFFFF"></path>
                    <path d="M127.845252,42.700248 C128.024892,42.276528 128.055852,41.871168 127.938492,41.483808 C127.820412,41.096448 127.584252,40.753368 127.230012,40.454568 C126.954972,40.222008 126.666612,40.062168 126.364212,39.974328 C126.061452,39.886488 125.757612,39.868128 125.453052,39.918888 C125.148132,39.970368 124.846092,40.089528 124.546932,40.276728 C124.247772,40.463568 123.966972,40.712688 123.703812,41.024448 C123.156972,41.672088 122.893092,42.309648 122.912172,42.937848 C122.931252,43.566048 123.209532,44.107128 123.747012,44.561088 C124.132212,44.885808 124.548372,45.080568 124.996572,45.145008 C125.444412,45.209088 125.852652,45.140688 126.221652,44.939448 L127.122012,46.735488 C126.383652,47.127168 125.602812,47.252808 124.779492,47.112408 C123.967692,46.970928 123.210252,46.603368 122.507892,46.010448 C122.006772,45.587808 121.621212,45.120888 121.351212,44.610408 C121.081212,44.099928 120.929652,43.568928 120.897612,43.018848 C120.865212,42.468048 120.950532,41.912208 121.152492,41.350608 C121.354812,40.788288 121.674852,40.247928 122.113332,39.728808 C122.545692,39.204648 123.027012,38.792448 123.558012,38.492208 C124.088292,38.191968 124.634772,38.009808 125.197092,37.945008 C125.758692,37.880568 126.318132,37.937088 126.875052,38.114208 C127.431972,38.291328 127.955052,38.591928 128.444652,39.015648 C129.165732,39.624048 129.636612,40.330368 129.858012,41.134248 C130.084092,41.932368 130.020732,42.695208 129.667932,43.422768 L127.845252,42.700248 Z" id="Fill-28" fill="#FFFFFF"></path>
                    <polygon id="Fill-30" fill="#FFFFFF" points="133.082496 50.778072 131.671656 56.107512 130.144536 54.104472 131.125176 50.762592 129.638016 50.750712 128.312496 51.761232 127.134216 50.216472 134.220096 44.813232 135.398376 46.358352 132.079536 48.888792 137.267136 48.809232 138.801816 50.821272"></polygon>
                    <path d="M54.564876,115.481412 C52.957116,113.704812 53.097516,111.354012 54.784836,109.826892 L54.801036,109.812492 C56.423196,108.344772 58.894596,108.405972 60.458436,110.133612 C61.387596,111.160332 61.670916,112.030812 61.704396,113.083092 L60.035076,113.155452 C60.003396,112.383252 59.861916,111.800052 59.264316,111.140172 C58.438116,110.227212 56.974716,110.232252 56.004876,111.109572 L55.988676,111.124332 C54.945396,112.068972 54.828036,113.479092 55.742796,114.489612 C56.155716,114.946452 56.638836,115.250292 57.154716,115.361892 L57.969756,114.624252 L56.826396,113.360652 L57.910356,112.380372 L60.152436,114.857892 L57.674916,117.099612 C56.646396,116.962812 55.508796,116.524692 54.564876,115.481412" id="Fill-32" fill="#FFFFFF"></path>
                    <path d="M62.721108,122.704596 C61.040988,121.500396 60.686028,119.825676 62.005068,117.984996 L64.566828,114.410556 L65.943108,115.396956 L63.406908,118.935396 C62.676828,119.953836 62.808228,120.846636 63.648468,121.448556 C64.487988,122.050836 65.362788,121.906116 66.073788,120.914316 L68.641668,117.330876 L70.017948,118.317276 L67.488228,121.847076 C66.130668,123.741756 64.400868,123.908796 62.721108,122.704596" id="Fill-34" fill="#FFFFFF"></path>
                    <path d="M74.593728,122.784768 L72.656928,124.662168 L74.531088,125.481168 L74.593728,122.784768 Z M74.439288,128.956968 L74.486088,127.093608 L71.504208,125.790408 L70.168248,127.090008 L68.586408,126.398808 L74.713248,120.617568 L76.143528,121.242888 L76.061448,129.665808 L74.439288,128.956968 Z" id="Fill-36" fill="#FFFFFF"></path>
                    <path d="M85.491108,126.717696 C85.634388,126.006336 85.213188,125.540136 84.404268,125.376696 L82.755468,125.044056 L82.318068,127.210176 L83.999268,127.550016 C84.807828,127.713096 85.358268,127.375416 85.486428,126.739656 L85.491108,126.717696 Z M84.455748,131.679936 L83.326068,128.939616 L82.021788,128.676096 L81.535068,131.090256 L79.874748,130.755456 L81.397908,123.210936 L84.847068,123.906816 C86.625108,124.265736 87.502788,125.419176 87.189948,126.971136 L87.185628,126.992736 C86.939388,128.210256 86.127588,128.843136 85.096548,129.005136 L86.395788,132.071616 L84.455748,131.679936 Z" id="Fill-38" fill="#FFFFFF"></path>
                    <path d="M93.763368,126.67446 L92.780928,129.18618 L94.825728,129.15342 L93.763368,126.67446 Z M96.186168,132.35274 L95.454648,130.63842 L92.200968,130.69098 L91.525248,132.42834 L89.799048,132.45642 L92.972088,124.65306 L94.533048,124.6275 L97.955928,132.32394 L96.186168,132.35274 Z" id="Fill-40" fill="#FFFFFF"></path>
                    <polygon id="Fill-42" fill="#FFFFFF" points="107.137872 130.577148 102.396312 126.658908 103.507632 131.424228 101.880432 131.803308 100.131552 124.308468 101.652192 123.953868 106.240752 127.749348 105.164352 123.134148 106.791552 122.754348 108.540432 130.249908"></polygon>
                    <polygon id="Fill-44" fill="#FFFFFF" points="113.428044 121.654512 116.005284 127.222272 114.468804 127.933272 111.891564 122.365872 109.766484 123.349392 109.110924 121.932432 114.897564 119.254032 115.553484 120.670992"></polygon>
                    <polygon id="Fill-46" fill="#FFFFFF" points="121.932324 123.945984 117.386964 117.734904 122.072004 114.306624 122.961204 115.522344 119.633724 117.957024 120.556044 119.217024 123.484284 117.074304 124.373844 118.290024 121.445604 120.432744 122.400324 121.737024 125.772084 119.269584 126.661644 120.485304"></polygon>
                    <polygon id="Fill-48" fill="#FFFFFF" points="130.609944 116.8416 124.852824 111.7332 128.705904 107.39052 129.832704 108.39024 127.095984 111.47436 128.263824 112.5108 130.672224 109.79676 131.799024 110.79648 129.390624 113.51052 130.599504 114.58332 133.372944 111.45816 134.499744 112.45752"></polygon>
                    <path d="M39.287736,79.742628 L39.287736,89.195868 L36.287856,89.195868 L36.093456,87.771348 C35.633016,88.332228 34.999776,88.750188 34.194456,89.023068 C33.388416,89.296308 32.532336,89.433108 31.626216,89.433108 C30.517776,89.447508 29.500056,89.245908 28.571616,88.828668 C27.643896,88.411788 26.852616,87.835788 26.197776,87.102108 C25.542576,86.368428 25.035696,85.501908 24.676056,84.501468 C24.316416,83.501388 24.143976,82.418868 24.158376,81.253188 C24.143976,80.059428 24.327216,78.951708 24.708816,77.929668 C25.089696,76.908348 25.632936,76.023468 26.338176,75.275028 C27.042696,74.526948 27.884736,73.944468 28.863576,73.526868 C29.841696,73.109628 30.927816,72.908388 32.122296,72.922788 C33.863256,72.922788 35.366616,73.332468 36.633096,74.152908 C37.928016,74.987388 38.798496,76.066308 39.244536,77.390028 L36.093456,78.663348 C35.776656,77.829228 35.269776,77.210388 34.571736,76.807548 C33.873696,76.404708 33.071616,76.203108 32.165496,76.203108 C31.475016,76.203108 30.852216,76.325508 30.298536,76.569948 C29.744496,76.814748 29.276856,77.159988 28.895616,77.605668 C28.514016,78.052068 28.219176,78.591708 28.010736,79.224588 C27.802296,79.857828 27.697896,80.562708 27.697896,81.339948 C27.697896,82.908108 28.093176,84.105828 28.885176,84.933108 C29.676096,85.760748 30.726576,86.174028 32.035896,86.174028 C32.510736,86.174028 32.971176,86.116788 33.417216,86.001588 C33.863256,85.886388 34.262496,85.706748 34.615296,85.461948 C34.967736,85.217508 35.269776,84.900708 35.521776,84.512268 C35.773056,84.123828 35.942616,83.663748 36.028656,83.130948 L36.028656,82.807668 L31.777056,82.807668 L31.777056,79.742628 L39.287736,79.742628 Z" id="Fill-50" fill="#FFFFFF"></path>
                    <polygon id="Fill-52" fill="#FFFFFF" points="45.48402 76.526892 45.48402 79.569972 51.37578 79.569972 51.37578 82.656252 45.48402 82.656252 45.48402 85.915332 52.13106 85.915332 52.13106 89.195652 41.98734 89.195652 41.98734 73.224612 52.13106 73.224612 52.13106 76.526892"></polygon>
                    <polygon id="Fill-54" fill="#FFFFFF" points="65.618352 76.548312 61.279992 76.548312 61.279992 89.195832 57.783672 89.195832 57.783672 76.548312 53.424072 76.548312 53.424072 73.224792 65.618352 73.224792"></polygon>
                    <polygon id="Fill-56" fill="#FFFFFF" points="84.740184 76.548312 80.401824 76.548312 80.401824 89.195832 76.905504 89.195832 76.905504 76.548312 72.546264 76.548312 72.546264 73.224792 84.740184 73.224792"></polygon>
                    <polygon id="Fill-58" fill="#FFFFFF" points="86.235732 73.224648 89.732412 73.224648 89.732412 79.570008 95.689332 79.591608 95.689332 73.224648 99.206892 73.224648 99.206892 89.195688 95.689332 89.195688 95.689332 82.699128 89.732412 82.656288 89.732412 89.195688 86.235732 89.195688"></polygon>
                    <polygon id="Fill-60" fill="#FFFFFF" points="105.629652 76.526892 105.629652 79.569972 111.521772 79.569972 111.521772 82.656252 105.629652 82.656252 105.629652 85.915332 112.277412 85.915332 112.277412 89.195652 102.133692 89.195652 102.133692 73.224612 112.277412 73.224612 112.277412 76.526892"></polygon>
                    <path d="M130.492872,73.224648 L130.492872,84.728088 C130.492872,85.418568 130.370112,86.055408 130.125672,86.638248 C129.881232,87.221088 129.532392,87.724368 129.079152,88.148808 C128.625912,88.573968 128.079072,88.904448 127.439352,89.141688 C126.798552,89.379288 126.082872,89.497728 125.291592,89.497728 C124.427952,89.497728 123.669072,89.382888 123.014592,89.152488 C122.359752,88.922448 121.813272,88.595208 121.374432,88.170768 C120.935232,87.746328 120.600432,87.235488 120.370752,86.638248 C120.140352,86.041368 120.025512,85.375728 120.025512,84.641688 L120.025512,84.080448 L123.370992,84.080448 L123.370992,84.641688 C123.370992,85.059288 123.522552,85.433328 123.826392,85.764168 C124.130592,86.095368 124.586352,86.260608 125.194392,86.260608 C125.802432,86.260608 126.254592,86.098608 126.551592,85.774968 C126.847872,85.451328 126.996552,85.030488 126.996552,84.512088 L126.996552,73.224648 L130.492872,73.224648 Z" id="Fill-62" fill="#FFFFFF"></path>
                    <path d="M140.293368,86.044716 C141.588648,86.044716 142.598808,85.617036 143.325648,84.760596 C144.052128,83.904876 144.415728,82.713996 144.415728,81.188676 C144.415728,79.663356 144.052128,78.473196 143.325648,77.616756 C142.598808,76.761036 141.588648,76.332276 140.293368,76.332276 C138.983688,76.332276 137.965968,76.761036 137.239488,77.616756 C136.512648,78.473196 136.149408,79.663356 136.149408,81.188676 C136.149408,82.713996 136.512648,83.904876 137.239488,84.760596 C137.965968,85.617036 138.983688,86.044716 140.293368,86.044716 M140.271768,72.943956 C141.437088,72.929916 142.501968,73.127556 143.466048,73.537596 C144.429768,73.947276 145.257408,74.523276 145.947888,75.264156 C146.638368,76.005396 147.174408,76.883076 147.556008,77.897196 C147.936888,78.911676 148.120488,80.008956 148.106448,81.188676 C148.120488,82.368396 147.936888,83.465676 147.556008,84.479796 C147.174408,85.494636 146.634768,86.375916 145.937448,87.123636 C145.239048,87.872076 144.408528,88.454556 143.444448,88.872156 C142.480368,89.289396 141.415488,89.483796 140.250168,89.454636 C139.099248,89.469036 138.045168,89.271396 137.088288,88.861356 C136.131048,88.451316 135.307728,87.875676 134.617248,87.134436 C133.926408,86.393916 133.390368,85.515876 133.009488,84.501396 C132.627888,83.487276 132.444288,82.390356 132.458688,81.209916 C132.444288,80.030556 132.627888,78.933276 133.009488,77.918796 C133.390368,76.904316 133.926408,76.023396 134.617248,75.274956 C135.307728,74.526876 136.135008,73.944396 137.099448,73.527156 C138.062808,73.109556 139.120488,72.915156 140.271768,72.943956" id="Fill-64" fill="#FFFFFF"></path>
                    <path d="M158.700852,84.42612 C158.700852,83.86452 158.517252,83.41164 158.150412,83.0664 C157.783572,82.72116 157.312332,82.54836 156.736692,82.54836 L153.650772,82.54836 L153.650772,86.23908 L156.736692,86.23908 C157.341132,86.23908 157.819212,86.07708 158.172012,85.75344 C158.524452,85.42944 158.700852,84.98736 158.700852,84.42612 L158.700852,84.42612 Z M153.650772,76.2246 L153.650772,79.97976 L156.542652,79.97976 C157.189932,79.97976 157.675572,79.79652 157.999572,79.42968 C158.322852,79.06284 158.484852,78.62796 158.484852,78.12396 C158.484852,77.63508 158.322852,77.19588 157.999572,76.80744 C157.675572,76.419 157.189932,76.2246 156.542652,76.2246 L153.650772,76.2246 Z M162.153972,85.0086 C162.153972,86.34672 161.679132,87.3792 160.729812,88.10604 C159.779772,88.83252 158.498892,89.19576 156.887892,89.19576 L152.765532,89.19576 L150.175692,89.19576 L150.175692,73.26792 L153.650772,73.26792 L156.931092,73.26792 C157.707972,73.26792 158.406012,73.37592 159.024492,73.59156 C159.642612,73.80756 160.171812,74.10636 160.611012,74.48724 C161.049492,74.86848 161.384292,75.32856 161.614692,75.86856 C161.844372,76.4082 161.959932,77.00148 161.959932,77.64912 C161.959932,78.55524 161.765532,79.31088 161.377452,79.91532 C160.988292,80.5194 160.470612,80.9658 159.822972,81.25344 C160.513812,81.59868 161.075052,82.07352 161.506692,82.67796 C161.938332,83.28204 162.153972,84.05892 162.153972,85.0086 L162.153972,85.0086 Z" id="Fill-66" fill="#FFFFFF"></path>
                </g>
            </g>
        </g>
    </g>
</svg>