<?xml version="1.0" encoding="iso-8859-1"?>
<!-- Generator: Adobe Illustrator 19.0.0, SVG Export Plug-In . SVG Version: 6.00 Build 0)  -->
<svg version="1.1" id="Capa_1" xmlns="http://www.w3.org/2000/svg" xmlns:xlink="http://www.w3.org/1999/xlink" x="0px" y="0px"
	 viewBox="0 0 512.007 512.007" style="enable-background:new 0 0 512.007 512.007;" xml:space="preserve">
<circle style="fill:#F7F7F7;" cx="256.003" cy="256.003" r="256.003"/>
<path style="fill:#E2E1E4;" d="M294.39,130.372H115.304v86.365h-14.533v164.89l129.051,129.051
	c8.607,0.874,17.34,1.322,26.178,1.322c116.985,0,215.64-78.471,246.208-185.646l-90.979-90.979h-11.837L294.39,130.372z"/>
<rect x="115.299" y="130.372" style="fill:#C6C5CA;" width="179.085" height="189.16"/>
<rect x="164.309" y="203.867" style="fill:#ACACB2;" width="36.533" height="12.876"/>
<rect x="100.77" y="216.742" style="fill:#F6D433;" width="126.364" height="164.892"/>
<polygon style="fill:#FFFFFF;" points="164.305,348.292 195.72,286.15 227.136,348.292 "/>
<rect x="123.197" y="186.428" style="fill:#ACACB2;" width="88.854" height="10.381"/>
<rect x="187.002" y="182.41" style="fill:#497FC1;" width="134.529" height="199.215"/>
<polygon style="fill:#73A8DB;" points="321.53,381.628 186.998,381.628 254.264,263.751 "/>
<rect x="294.394" y="235.378" style="fill:#5A9449;" width="116.843" height="146.257"/>
<circle style="fill:#F7DC4D;" cx="352.389" cy="302.687" r="22.832"/>
<g>
	<path style="fill:#FFFFFF;" d="M352.394,296.875c7.188,0,13.671-3.064,18.222-7.949c-0.84-1.109-1.777-2.141-2.803-3.08
		c-3.802,4.219-9.306,6.877-15.42,6.877s-11.618-2.657-15.42-6.877c-1.024,0.938-1.963,1.969-2.803,3.08
		C338.723,293.812,345.206,296.875,352.394,296.875z"/>
	<path style="fill:#FFFFFF;" d="M352.394,308.502c-7.188,0-13.671,3.064-18.222,7.949c0.84,1.11,1.777,2.141,2.803,3.08
		c3.802-4.219,9.306-6.877,15.42-6.877s11.618,2.657,15.42,6.877c1.024-0.938,1.963-1.969,2.803-3.08
		C366.065,311.565,359.583,308.502,352.394,308.502z"/>
	<path style="fill:#FFFFFF;" d="M294.39,357.384l7.459-17.05h8.307l-15.767,38.989v2.305h3.547l9.422-23.3h43.778v23.3h4.152v-23.3
		h42.969l9.422,23.3h3.547v-2.305l-10.161-25.126v-0.022h-0.009l-5.598-13.841h8.307l7.459,17.05v-10.358l-4.745-10.844H299.134
		l-4.745,10.844V357.384z M390.983,340.334l5.597,13.841h-87.541l5.597-13.841H390.983z"/>
	<path style="fill:#FFFFFF;" d="M318.017,249.946c-0.101,0.176-0.208,0.305-0.321,0.384c-0.113,0.08-0.254,0.12-0.422,0.12
		c-0.176,0-0.367-0.064-0.573-0.195c-0.205-0.131-0.45-0.274-0.735-0.433c-0.285-0.159-0.619-0.305-1.001-0.433
		c-0.382-0.131-0.832-0.195-1.352-0.195c-0.47,0-0.881,0.057-1.233,0.17c-0.351,0.113-0.647,0.27-0.887,0.472
		c-0.239,0.201-0.417,0.442-0.534,0.722c-0.117,0.281-0.176,0.59-0.176,0.925c0,0.429,0.12,0.785,0.358,1.069
		c0.239,0.286,0.556,0.528,0.95,0.729c0.394,0.202,0.843,0.382,1.346,0.541c0.503,0.159,1.018,0.33,1.547,0.51
		c0.527,0.181,1.044,0.391,1.547,0.629c0.503,0.24,0.952,0.541,1.346,0.906c0.393,0.365,0.711,0.812,0.949,1.34
		c0.24,0.527,0.358,1.17,0.358,1.924c0,0.822-0.141,1.591-0.422,2.309s-0.692,1.341-1.232,1.874
		c-0.541,0.533-1.202,0.952-1.982,1.258s-1.673,0.459-2.679,0.459c-0.579,0-1.149-0.056-1.711-0.169
		c-0.562-0.114-1.101-0.275-1.617-0.485c-0.516-0.209-1.001-0.461-1.454-0.755c-0.452-0.293-0.855-0.621-1.207-0.981l0.994-1.623
		c0.084-0.118,0.193-0.216,0.328-0.296c0.134-0.079,0.276-0.12,0.428-0.12c0.21,0,0.435,0.086,0.68,0.258
		c0.244,0.172,0.532,0.363,0.868,0.572c0.336,0.21,0.727,0.401,1.176,0.573s0.988,0.258,1.617,0.258c0.965,0,1.711-0.229,2.24-0.686
		c0.528-0.457,0.793-1.113,0.793-1.969c0-0.478-0.12-0.868-0.358-1.171c-0.238-0.302-0.556-0.555-0.95-0.761
		c-0.394-0.206-0.843-0.38-1.346-0.522c-0.503-0.143-1.014-0.298-1.535-0.466c-0.52-0.167-1.031-0.369-1.535-0.604
		c-0.503-0.235-0.952-0.54-1.345-0.918c-0.394-0.378-0.712-0.849-0.95-1.415c-0.24-0.566-0.358-1.265-0.358-2.095
		c0-0.662,0.132-1.307,0.396-1.937c0.264-0.629,0.647-1.187,1.151-1.674c0.504-0.486,1.124-0.876,1.862-1.17
		c0.738-0.294,1.585-0.44,2.542-0.44c1.073,0,2.063,0.168,2.969,0.504s1.677,0.805,2.315,1.409L318.017,249.946z"/>
	<path style="fill:#FFFFFF;" d="M328.044,246.638c1.216,0,2.268,0.143,3.157,0.428c0.889,0.285,1.623,0.683,2.202,1.196
		c0.579,0.512,1.009,1.124,1.29,1.836c0.281,0.714,0.422,1.493,0.422,2.34c0,0.882-0.146,1.688-0.439,2.422
		c-0.294,0.734-0.734,1.365-1.321,1.893c-0.588,0.529-1.323,0.939-2.208,1.233c-0.885,0.294-1.918,0.439-3.101,0.439h-2.53v6.404
		h-3.384v-18.191L328.044,246.638L328.044,246.638z M328.044,255.784c0.621,0,1.162-0.077,1.623-0.233
		c0.461-0.154,0.845-0.377,1.151-0.667c0.307-0.289,0.534-0.641,0.685-1.056c0.151-0.416,0.227-0.879,0.227-1.391
		c0-0.486-0.075-0.926-0.227-1.32c-0.15-0.394-0.377-0.729-0.68-1.008c-0.302-0.276-0.683-0.488-1.144-0.635
		c-0.461-0.147-1.007-0.221-1.635-0.221h-2.53v6.53H328.044z"/>
	<path style="fill:#FFFFFF;" d="M355.055,255.733c0,1.334-0.221,2.568-0.66,3.704c-0.44,1.136-1.063,2.121-1.869,2.95
		c-0.806,0.829-1.775,1.478-2.907,1.944c-1.133,0.465-2.39,0.698-3.774,0.698c-1.377,0-2.63-0.233-3.762-0.698
		c-1.133-0.466-2.103-1.113-2.913-1.944c-0.809-0.83-1.436-1.814-1.88-2.95c-0.444-1.136-0.667-2.371-0.667-3.704
		s0.223-2.569,0.667-3.705s1.072-2.12,1.88-2.949c0.81-0.83,1.78-1.479,2.913-1.944c1.132-0.466,2.385-0.699,3.762-0.699
		c0.922,0,1.79,0.107,2.604,0.321c0.814,0.214,1.56,0.516,2.24,0.906c0.68,0.391,1.29,0.864,1.831,1.422s1.001,1.181,1.379,1.869
		c0.377,0.688,0.664,1.434,0.861,2.24C354.956,253.996,355.055,254.845,355.055,255.733z M351.595,255.733
		c0-0.999-0.134-1.893-0.402-2.686c-0.268-0.793-0.65-1.466-1.145-2.02c-0.495-0.553-1.096-0.976-1.805-1.27
		c-0.709-0.294-1.507-0.44-2.396-0.44c-0.889,0-1.688,0.146-2.397,0.44c-0.709,0.294-1.312,0.718-1.811,1.27
		c-0.5,0.554-0.884,1.227-1.152,2.02c-0.268,0.793-0.402,1.687-0.402,2.686c0,0.999,0.135,1.893,0.402,2.686
		c0.268,0.793,0.652,1.464,1.152,2.013c0.499,0.549,1.103,0.97,1.811,1.264c0.709,0.294,1.507,0.439,2.397,0.439
		c0.888,0,1.687-0.146,2.396-0.439c0.71-0.294,1.31-0.716,1.805-1.264c0.495-0.55,0.877-1.22,1.145-2.013
		C351.461,257.627,351.595,256.732,351.595,255.733z"/>
	<path style="fill:#FFFFFF;" d="M372.24,264.83h-3.057c-0.579,0-0.999-0.227-1.258-0.68l-3.824-5.825
		c-0.143-0.218-0.3-0.373-0.472-0.465c-0.172-0.093-0.427-0.14-0.762-0.14h-1.447v7.109h-3.384v-18.191h5.547
		c1.233,0,2.291,0.128,3.177,0.384c0.885,0.255,1.61,0.614,2.176,1.075c0.566,0.462,0.983,1.012,1.252,1.655
		c0.269,0.642,0.403,1.348,0.403,2.121c0,0.612-0.091,1.191-0.27,1.736c-0.181,0.545-0.44,1.04-0.78,1.485
		c-0.34,0.444-0.76,0.834-1.258,1.17c-0.499,0.337-1.067,0.6-1.705,0.794c0.219,0.126,0.42,0.274,0.604,0.446
		s0.352,0.375,0.504,0.61L372.24,264.83z M363.533,255.293c0.638,0,1.193-0.079,1.668-0.239c0.474-0.159,0.864-0.38,1.17-0.661
		c0.307-0.28,0.535-0.614,0.686-1c0.15-0.386,0.227-0.81,0.227-1.271c0-0.923-0.304-1.631-0.912-2.126
		c-0.608-0.495-1.537-0.742-2.786-0.742h-2.164v6.039h2.113V255.293z"/>
	<path style="fill:#FFFFFF;" d="M386.443,249.417h-5.486v15.411h-3.384v-15.411h-5.485v-2.78h14.354V249.417z"/>
	<path style="fill:#FFFFFF;" d="M398.482,249.946c-0.101,0.176-0.208,0.305-0.321,0.384c-0.113,0.08-0.254,0.12-0.422,0.12
		c-0.176,0-0.367-0.064-0.573-0.195c-0.205-0.131-0.45-0.274-0.735-0.433c-0.285-0.159-0.619-0.305-1.001-0.433
		c-0.382-0.131-0.832-0.195-1.352-0.195c-0.47,0-0.881,0.057-1.233,0.17c-0.351,0.113-0.647,0.27-0.887,0.472
		c-0.239,0.201-0.417,0.442-0.534,0.722c-0.117,0.281-0.176,0.59-0.176,0.925c0,0.429,0.12,0.785,0.358,1.069
		c0.239,0.286,0.556,0.528,0.95,0.729c0.394,0.202,0.843,0.382,1.346,0.541c0.503,0.159,1.018,0.33,1.547,0.51
		c0.527,0.181,1.044,0.391,1.547,0.629c0.503,0.24,0.952,0.541,1.346,0.906c0.393,0.365,0.711,0.812,0.949,1.34
		c0.24,0.527,0.358,1.17,0.358,1.924c0,0.822-0.141,1.591-0.422,2.309s-0.692,1.341-1.232,1.874
		c-0.541,0.533-1.202,0.952-1.982,1.258s-1.673,0.459-2.679,0.459c-0.579,0-1.149-0.056-1.711-0.169
		c-0.562-0.114-1.101-0.275-1.617-0.485c-0.516-0.209-1.001-0.461-1.454-0.755c-0.452-0.293-0.855-0.621-1.207-0.981l0.994-1.623
		c0.084-0.118,0.193-0.216,0.328-0.296c0.134-0.079,0.276-0.12,0.428-0.12c0.21,0,0.435,0.086,0.68,0.258
		c0.244,0.172,0.532,0.363,0.868,0.572c0.335,0.21,0.727,0.401,1.176,0.573s0.988,0.258,1.617,0.258c0.965,0,1.711-0.229,2.24-0.686
		s0.793-1.113,0.793-1.969c0-0.478-0.12-0.868-0.358-1.171c-0.239-0.302-0.556-0.555-0.95-0.761s-0.843-0.38-1.346-0.522
		c-0.503-0.143-1.014-0.298-1.535-0.466c-0.52-0.167-1.031-0.369-1.535-0.604c-0.503-0.235-0.952-0.54-1.345-0.918
		c-0.394-0.378-0.712-0.849-0.95-1.415c-0.24-0.566-0.358-1.265-0.358-2.095c0-0.662,0.132-1.307,0.396-1.937
		c0.264-0.629,0.647-1.187,1.151-1.674c0.504-0.486,1.124-0.876,1.862-1.17c0.738-0.294,1.585-0.44,2.542-0.44
		c1.073,0,2.064,0.168,2.969,0.504s1.677,0.805,2.315,1.409L398.482,249.946z"/>
</g>
<g>
	<path style="fill:#263364;" d="M218.42,206.911h-6.546v18.392h-4.039v-18.392h-6.546v-3.318h17.132L218.42,206.911L218.42,206.911z
		"/>
	<path style="fill:#263364;" d="M238.224,225.303h-3.649c-0.691,0-1.192-0.27-1.501-0.811l-4.564-6.951
		c-0.17-0.261-0.357-0.445-0.563-0.556c-0.205-0.11-0.508-0.165-0.908-0.165h-1.727v8.483h-4.039v-21.711h6.621
		c1.471,0,2.735,0.152,3.791,0.458c1.056,0.306,1.922,0.733,2.598,1.284c0.676,0.551,1.174,1.209,1.494,1.974
		c0.32,0.765,0.48,1.609,0.48,2.53c0,0.731-0.108,1.422-0.323,2.072c-0.216,0.651-0.526,1.241-0.93,1.772
		c-0.405,0.53-0.907,0.997-1.501,1.396c-0.596,0.4-1.274,0.717-2.035,0.946c0.26,0.149,0.5,0.328,0.721,0.532
		c0.221,0.206,0.421,0.448,0.601,0.728L238.224,225.303z M227.834,213.923c0.761,0,1.424-0.095,1.989-0.285
		c0.565-0.19,1.031-0.453,1.396-0.789c0.365-0.336,0.638-0.732,0.818-1.194c0.18-0.46,0.27-0.966,0.27-1.516
		c0-1.101-0.363-1.947-1.089-2.537c-0.725-0.59-1.834-0.887-3.325-0.887h-2.582v7.207L227.834,213.923L227.834,213.923z"/>
	<path style="fill:#263364;" d="M259.182,225.303h-3.121c-0.35,0-0.636-0.088-0.856-0.263c-0.22-0.175-0.385-0.392-0.495-0.653
		l-1.622-4.429h-8.993l-1.621,4.429c-0.08,0.231-0.236,0.44-0.465,0.631c-0.231,0.19-0.516,0.285-0.856,0.285h-3.153l8.543-21.711
		h4.113L259.182,225.303z M252.051,217.106l-2.642-7.222c-0.131-0.32-0.265-0.701-0.406-1.141c-0.141-0.439-0.28-0.915-0.421-1.425
		c-0.131,0.511-0.265,0.988-0.406,1.433s-0.275,0.833-0.406,1.164l-2.628,7.192L252.051,217.106L252.051,217.106z"/>
	<path style="fill:#263364;" d="M278.311,203.593l-8.768,21.711h-3.649l-8.768-21.711h3.243c0.35,0,0.635,0.085,0.855,0.255
		c0.22,0.17,0.386,0.391,0.496,0.661l5.12,13.242c0.17,0.432,0.333,0.904,0.488,1.419c0.154,0.516,0.303,1.053,0.442,1.614
		c0.12-0.56,0.25-1.098,0.391-1.614c0.141-0.516,0.295-0.988,0.466-1.419l5.09-13.242c0.08-0.23,0.238-0.44,0.473-0.631
		c0.235-0.189,0.523-0.285,0.863-0.285H278.311z"/>
	<path style="fill:#263364;" d="M284.616,206.806v6.021h7.598v3.108h-7.598v6.141h9.64v3.228h-13.693v-21.711h13.693v3.213H284.616z
		"/>
	<path style="fill:#263364;" d="M310.545,221.97v3.333h-12.718v-21.711h4.039v18.377L310.545,221.97L310.545,221.97z"/>
</g>
<path style="fill:#FFFFFF;" d="M281.392,302.688v-5.813l-19.136-19.023c0.204-3.02,0.313-5.514,0.313-7.136
	c0-9.478-3.718-17.162-8.305-17.162c-4.586,0-8.305,7.684-8.305,17.162c0,1.622,0.109,4.116,0.312,7.136l-19.136,19.023v5.813
	l20.523-9.88c0.506,4.362,1.108,8.772,1.787,12.715l-9.299,5.47v4.29h11.495c0.824,2.583,1.706,4.152,2.623,4.152
	s1.797-1.57,2.622-4.152h11.495v-4.29l-9.299-5.47c0.678-3.943,1.281-8.353,1.786-12.715L281.392,302.688z"/>
<g>
	<path style="fill:#2D2E30;" d="M141.338,254.111h-3.132c-0.351,0-0.637-0.088-0.858-0.264c-0.221-0.175-0.387-0.393-0.497-0.654
		l-1.626-4.442h-9.019l-1.626,4.442c-0.08,0.231-0.236,0.441-0.467,0.632c-0.232,0.191-0.517,0.286-0.858,0.286h-3.162l8.568-21.772
		h4.125L141.338,254.111z M134.185,245.891l-2.65-7.243c-0.131-0.321-0.266-0.703-0.407-1.144c-0.141-0.441-0.281-0.918-0.422-1.43
		c-0.131,0.513-0.266,0.992-0.407,1.438s-0.276,0.836-0.407,1.168l-2.636,7.212L134.185,245.891L134.185,245.891z"/>
	<path style="fill:#2D2E30;" d="M160.595,254.111h-3.659c-0.693,0-1.195-0.27-1.505-0.813l-4.577-6.971
		c-0.171-0.261-0.359-0.446-0.565-0.557c-0.206-0.11-0.51-0.165-0.911-0.165h-1.732v8.507h-4.051V232.34h6.64
		c1.476,0,2.742,0.152,3.802,0.459c1.059,0.307,1.927,0.735,2.605,1.288c0.678,0.552,1.177,1.212,1.498,1.98
		c0.322,0.767,0.482,1.613,0.482,2.537c0,0.732-0.108,1.425-0.324,2.078c-0.216,0.653-0.527,1.244-0.933,1.776
		c-0.407,0.531-0.909,0.999-1.505,1.4c-0.598,0.401-1.278,0.718-2.041,0.948c0.261,0.15,0.502,0.329,0.722,0.534
		c0.221,0.206,0.422,0.449,0.603,0.73L160.595,254.111z M150.176,242.698c0.763,0,1.428-0.095,1.995-0.286
		c0.567-0.19,1.033-0.454,1.4-0.791c0.366-0.336,0.639-0.734,0.82-1.197c0.181-0.462,0.271-0.969,0.271-1.521
		c0-1.104-0.364-1.953-1.092-2.544c-0.728-0.592-1.84-0.888-3.335-0.888h-2.59v7.228L150.176,242.698L150.176,242.698z"/>
	<path style="fill:#2D2E30;" d="M177.595,235.667h-6.565v18.445h-4.05v-18.445h-6.565v-3.327h17.18L177.595,235.667L177.595,235.667
		z"/>
</g>
<rect x="111.984" y="325.529" style="fill:#DE3205;" width="44.428" height="44.428"/>
<circle style="fill:#497FC1;" cx="156.203" cy="295.215" r="22.011"/>
<g>
	<path style="fill:#3E3E42;" d="M182.963,147.128v20.958h-2.532c-0.374,0-0.688-0.06-0.942-0.18
		c-0.254-0.12-0.506-0.329-0.755-0.625l-9.882-12.501c0.039,0.374,0.064,0.736,0.079,1.087c0.015,0.35,0.022,0.679,0.022,0.986
		v11.234h-4.286v-20.958h2.56c0.211,0,0.389,0.01,0.532,0.029c0.144,0.02,0.273,0.055,0.388,0.107
		c0.115,0.053,0.226,0.128,0.331,0.224c0.105,0.096,0.226,0.226,0.359,0.389l9.968,12.586c-0.048-0.403-0.081-0.794-0.101-1.173
		c-0.02-0.379-0.029-0.735-0.029-1.072v-11.089L182.963,147.128L182.963,147.128z"/>
	<path style="fill:#3E3E42;" d="M191.909,150.868v4.89h6.588v3.597h-6.588v4.991h8.601v3.74h-13.492v-20.958h13.493v3.739
		L191.909,150.868L191.909,150.868z"/>
	<path style="fill:#3E3E42;" d="M232.056,147.128l-6.474,20.958h-4.401l-3.941-12.989c-0.077-0.202-0.148-0.425-0.216-0.669
		c-0.067-0.244-0.135-0.502-0.202-0.769c-0.067,0.268-0.135,0.525-0.202,0.769s-0.14,0.467-0.216,0.669l-3.999,12.989h-4.401
		l-6.474-20.958h4.084c0.422,0,0.775,0.096,1.057,0.287c0.283,0.192,0.468,0.446,0.554,0.763l2.877,10.932
		c0.086,0.345,0.173,0.721,0.259,1.129s0.172,0.832,0.259,1.274c0.172-0.902,0.383-1.702,0.633-2.403l3.395-10.932
		c0.086-0.268,0.271-0.511,0.554-0.725c0.283-0.217,0.625-0.324,1.028-0.324h1.439c0.422,0,0.763,0.099,1.021,0.295
		c0.259,0.196,0.455,0.448,0.59,0.755l3.366,10.932c0.249,0.672,0.46,1.434,0.633,2.288c0.076-0.432,0.155-0.837,0.238-1.216
		c0.081-0.379,0.165-0.735,0.251-1.072l2.877-10.932c0.076-0.277,0.259-0.522,0.546-0.733c0.288-0.211,0.633-0.316,1.035-0.316
		h3.826V147.128z"/>
	<path style="fill:#3E3E42;" d="M245.418,151.386c-0.144,0.23-0.295,0.403-0.453,0.518c-0.158,0.115-0.362,0.172-0.612,0.172
		c-0.221,0-0.458-0.068-0.713-0.208c-0.254-0.14-0.541-0.295-0.863-0.468c-0.322-0.173-0.688-0.329-1.101-0.468
		c-0.413-0.139-0.883-0.209-1.409-0.209c-0.911,0-1.589,0.194-2.036,0.583c-0.445,0.389-0.669,0.913-0.669,1.576
		c0,0.423,0.135,0.772,0.403,1.05c0.268,0.278,0.621,0.518,1.057,0.72c0.436,0.202,0.935,0.387,1.496,0.554
		c0.561,0.168,1.134,0.355,1.719,0.561c0.585,0.206,1.158,0.448,1.719,0.725c0.561,0.278,1.059,0.633,1.496,1.065
		c0.435,0.432,0.789,0.957,1.057,1.575c0.268,0.619,0.403,1.365,0.403,2.238c0,0.969-0.168,1.875-0.504,2.719
		c-0.336,0.844-0.822,1.58-1.46,2.207c-0.638,0.628-1.424,1.122-2.359,1.482c-0.934,0.359-1.997,0.539-3.186,0.539
		c-0.652,0-1.316-0.066-1.992-0.201c-0.676-0.135-1.331-0.324-1.964-0.568c-0.633-0.244-1.228-0.534-1.783-0.871
		c-0.556-0.336-1.041-0.71-1.453-1.121l1.439-2.273c0.115-0.162,0.266-0.3,0.453-0.41s0.391-0.165,0.612-0.165
		c0.288,0,0.577,0.091,0.87,0.273s0.624,0.384,0.993,0.604s0.794,0.422,1.274,0.604c0.479,0.182,1.045,0.273,1.697,0.273
		c0.882,0,1.568-0.194,2.057-0.583c0.489-0.389,0.733-1.005,0.733-1.849c0-0.489-0.135-0.887-0.403-1.194
		c-0.268-0.307-0.621-0.56-1.057-0.763c-0.436-0.201-0.932-0.379-1.488-0.531c-0.556-0.153-1.126-0.324-1.711-0.512
		c-0.585-0.186-1.155-0.417-1.711-0.69c-0.556-0.273-1.052-0.633-1.488-1.079c-0.436-0.446-0.789-1.003-1.057-1.67
		c-0.268-0.666-0.403-1.488-0.403-2.466c0-0.787,0.158-1.553,0.475-2.301c0.316-0.748,0.782-1.415,1.395-2
		c0.614-0.585,1.367-1.052,2.258-1.402s1.913-0.525,3.064-0.525c0.642,0,1.268,0.05,1.876,0.15c0.609,0.1,1.187,0.249,1.733,0.445
		c0.546,0.197,1.057,0.432,1.532,0.706c0.475,0.272,0.9,0.582,1.274,0.927L245.418,151.386z"/>
</g>
<rect x="123.197" y="203.867" style="fill:#ACACB2;" width="36.539" height="12.876"/>
<g>
</g>
<g>
</g>
<g>
</g>
<g>
</g>
<g>
</g>
<g>
</g>
<g>
</g>
<g>
</g>
<g>
</g>
<g>
</g>
<g>
</g>
<g>
</g>
<g>
</g>
<g>
</g>
<g>
</g>
</svg>
