<svg id="Capa_1" enable-background="new 0 0 512 512" height="512" viewBox="0 0 512 512" width="512" xmlns="http://www.w3.org/2000/svg"><g><g><g><g><g><g><g><g><g><circle cx="256" cy="256" fill="#7584f2" r="256"/></g></g></g></g></g></g></g></g><path d="m512 256c0-2.377-.033-4.748-.097-7.109l-130.832-130.832-22.022 24.952-85.549-85.55-142.571 270.019 55.862 55.862-40.584 68.538 54.029 54.029c17.952 3.987 36.612 6.091 55.764 6.091 141.385 0 256-114.615 256-256z" fill="#4855b7"/><g><path d="m106.039 365.101h152.03v35h-152.03z" fill="#e9edf5" transform="matrix(.249 -.969 .969 .249 -233.792 463.835)"/></g><g><path d="m312.446 306.586h35v152.03h-35z" fill="#cdd2e1" transform="matrix(.969 -.249 .249 .969 -84.751 94.028)"/></g><g><path d="m238.5 57.461h35v254.117h-35z" fill="#e9edf5"/></g><g><path d="m256.12 57.461h17.38v254.117h-17.38z" fill="#cdd2e1"/></g><g><g><path d="m381.071 227.761-250.142 99.719v-209.421h250.142z" fill="#fff"/></g><g><path d="m381.071 118.059h-124.951v209.421l124.951-99.719z" fill="#e9edf5"/></g><g><circle cx="186.615" cy="186.475" fill="#ffce00" r="37.085"/></g><g><path d="m130.929 327.48 95.264-90.993 43.629 31.995 71.262-78.533 39.987 37.812v99.719z" fill="#ff6c52"/></g><g><path d="m381.071 227.761-39.987-37.812-71.262 78.533-13.702-10.048v69.046h124.951z" fill="#ff432e"/></g></g><g><path d="m211.041 88.179h89.918v35h-89.918z" fill="#bec3d2"/></g><g><path d="m256.12 88.179h44.839v35h-44.839z" fill="#9196aa"/></g><g><path d="m160.217 303.201h191.565v35h-191.565z" fill="#bec3d2"/></g><g><path d="m256.12 303.201h95.662v35h-95.662z" fill="#9196aa"/></g></g></svg>