<?xml version="1.0" encoding="iso-8859-1"?>
<!-- Generator: Adobe Illustrator 19.0.0, SVG Export Plug-In . SVG Version: 6.00 Build 0)  -->
<svg version="1.1" id="Capa_1" xmlns="http://www.w3.org/2000/svg" xmlns:xlink="http://www.w3.org/1999/xlink" x="0px" y="0px"
	 viewBox="0 0 512 512" style="enable-background:new 0 0 512 512;" xml:space="preserve">
<circle style="fill:#FF6838;" cx="256" cy="255.992" r="255.992"/>
<path style="fill:#AE4E32;" d="M78.039,322.43L267.609,512c123.105-5.819,223.439-98.586,240.974-218.264L336.359,121.513
	L78.039,322.43z"/>
<polygon style="fill:#E0E0E0;" points="260.682,380.541 153.716,380.541 169.12,301.145 245.278,301.145 "/>
<polygon style="fill:#C0C0C0;" points="245.278,301.145 206.5,301.145 206.5,380.54 260.682,380.54 "/>
<rect x="78.036" y="121.516" style="fill:#1A1A1A;" width="258.322" height="200.914"/>
<rect x="206.502" y="121.516" width="129.856" height="200.914"/>
<rect x="95.665" y="138.726" style="fill:#35CCFF;" width="223.063" height="173.495"/>
<rect x="206.502" y="138.726" style="fill:#00BAFF;" width="112.226" height="173.495"/>
<rect x="78.036" y="269.662" style="fill:#FFFFFF;" width="258.322" height="52.771"/>
<g>
	<rect x="206.502" y="269.662" style="fill:#E0E0E0;" width="129.856" height="52.771"/>
	<circle style="fill:#E0E0E0;" cx="207.202" cy="293.121" r="11.373"/>
</g>
<path style="fill:#C0C0C0;" d="M207.199,281.745c-0.236,0-0.467,0.021-0.699,0.035v22.674c0.233,0.014,0.463,0.035,0.699,0.035
	c6.281,0,11.373-5.092,11.373-11.373C218.571,286.837,213.479,281.745,207.199,281.745z"/>
<rect x="242" y="242.992" style="fill:#333333;" width="189.494" height="122.996"/>
<rect x="335.997" y="242.992" style="fill:#1A1A1A;" width="95.497" height="122.996"/>
<rect x="255.32" y="256.302" style="fill:#35CCFF;" width="162.845" height="105.697"/>
<rect x="335.997" y="256.302" style="fill:#00BAFF;" width="82.177" height="105.697"/>
<rect x="232.921" y="352.209" style="fill:#1A1A1A;" width="207.663" height="28.332"/>
<rect x="335.997" y="352.209" width="104.577" height="28.332"/>
<g>
</g>
<g>
</g>
<g>
</g>
<g>
</g>
<g>
</g>
<g>
</g>
<g>
</g>
<g>
</g>
<g>
</g>
<g>
</g>
<g>
</g>
<g>
</g>
<g>
</g>
<g>
</g>
<g>
</g>
</svg>
