<?xml version="1.0" encoding="iso-8859-1"?>
<!-- Generator: Adobe Illustrator 19.0.0, SVG Export Plug-In . SVG Version: 6.00 Build 0)  -->
<svg version="1.1" id="Layer_1" xmlns="http://www.w3.org/2000/svg" xmlns:xlink="http://www.w3.org/1999/xlink" x="0px" y="0px"
	 viewBox="0 0 512 512" style="enable-background:new 0 0 512 512;" xml:space="preserve">
<circle style="fill:#FFEDB5;" cx="256" cy="256" r="256"/>
<path style="fill:#FEE187;" d="M326.632,502.125c82.911-23.75,148.599-88.257,173.996-170.46L347.164,177.957l-81.941,51.638
	l-100.014-99.656l-41.872-5.123l65.41,65.41l54.612,157.427l-28.822,42.003L326.632,502.125z"/>
<path style="fill:#D35933;" d="M379.961,293.257l-116.283,42.355c-4.961,1.807-10.449-0.75-12.257-5.711l-36.242-99.502
	c-1.807-4.961,0.75-10.449,5.711-12.257l116.283-42.355c4.961-1.807,10.449,0.75,12.257,5.711L385.672,281
	C387.481,285.961,384.924,291.449,379.961,293.257z"/>
<g>
	<path style="fill:#B54324;" d="M337.175,175.787l-58.582,21.339l42.787,117.47l58.582-21.339c4.961-1.807,7.52-7.294,5.711-12.257
		l-36.242-99.502C347.624,176.537,342.137,173.98,337.175,175.787z"/>
	<path style="fill:#B54324;" d="M307.762,223.653l-33.563,12.224c-4.213,1.534-8.871-0.636-10.405-4.849l0,0
		c-1.534-4.213,0.636-8.871,4.849-10.406l33.563-12.224c4.213-1.534,8.871,0.636,10.405,4.849l0,0
		C314.146,217.459,311.973,222.118,307.762,223.653z"/>
</g>
<path style="fill:#930000;" d="M302.204,208.396l-17.222,6.273l5.556,15.257l17.222-6.273c4.213-1.534,6.384-6.194,4.849-10.406l0,0
	C311.077,209.032,306.417,206.862,302.204,208.396z"/>
<path style="fill:#EAA22F;" d="M388.663,315.139L241.13,368.876l-75.271-206.655c-4.975-13.659-14.972-24.564-28.148-30.706
	l-14.374-6.699l7.282-15.624l14.374,6.699c17.349,8.083,30.513,22.442,37.066,40.429l69.372,190.457l131.336-47.838L388.663,315.139
	z"/>
<rect x="324.558" y="309.215" transform="matrix(-0.9396 0.3422 -0.3422 -0.9396 799.4167 494.628)" style="fill:#E09112;" width="63.033" height="17.239"/>
<circle style="fill:#59595B;" cx="246.277" cy="357.831" r="44.977"/>
<path style="fill:#272525;" d="M230.89,315.575c23.335-8.499,49.143,3.527,57.642,26.862s-3.527,49.143-26.862,57.642
	L230.89,315.575z"/>
<circle style="fill:#808183;" cx="246.277" cy="357.831" r="27.253"/>
<path style="fill:#59595B;" d="M236.953,332.219c14.143-5.151,29.784,2.138,34.935,16.281s-2.138,29.784-16.281,34.935
	L236.953,332.219z"/>
<g>
</g>
<g>
</g>
<g>
</g>
<g>
</g>
<g>
</g>
<g>
</g>
<g>
</g>
<g>
</g>
<g>
</g>
<g>
</g>
<g>
</g>
<g>
</g>
<g>
</g>
<g>
</g>
<g>
</g>
</svg>
