<?xml version="1.0" encoding="UTF-8"?>
<svg width="74px" height="73px" viewBox="0 0 74 73" version="1.1" xmlns="http://www.w3.org/2000/svg" xmlns:xlink="http://www.w3.org/1999/xlink">
    <title>84B4B743-8346-40F8-A466-A5462A9008E7</title>
    <g id="Secondary-Navigation-Pages" stroke="none" stroke-width="1" fill="none" fill-rule="evenodd">
        <g id="Support-Select-Copy" transform="translate(-662.000000, -1229.000000)">
            <g id="Manage-Settings" transform="translate(662.000000, 1229.000000)">
                <g id="Gear-Wrench" transform="translate(0.500000, 0.000000)">
                    <path d="M70.9700258,30.4170468 L63.1679303,30.4170468 C62.4730253,27.3698681 61.2656849,24.5234019 59.6462673,21.9551959 L65.1735752,16.4280031 C65.9657974,15.6357975 65.9657974,14.3524547 65.1735752,13.5602491 L59.4379478,7.82474119 C58.6457257,7.03253557 57.3623563,7.03253557 56.5701341,7.82474119 L51.0428262,13.351934 C48.4745667,11.7325501 45.6265206,10.5252349 42.580799,9.83034431 L42.580799,2.02841134 C42.580799,0.907767294 41.6730128,0 40.5523454,0 L32.4430928,0 C31.323946,0 30.4146392,0.907767294 30.4146392,2.02841134 L30.4146392,9.83034431 C27.3689177,10.5252349 24.5208715,11.7310296 21.9526121,13.351934 L16.4253041,7.82474119 C15.633082,7.03253557 14.3497125,7.03253557 13.5574904,7.82474119 L7.82186302,13.5602491 C7.02964089,14.3524547 7.02964089,15.6357975 7.82186302,16.4280031 L13.349171,21.9551959 C11.7297534,24.5234019 10.5224129,27.3713887 9.82750792,30.4170468 L2.02693301,30.4170468 C0.907786202,30.4170468 0,31.3248141 0,32.4439376 L0,40.5545419 C0,41.6736654 0.907786202,42.5829532 2.02693301,42.5829532 L9.8290285,42.5829532 C10.5239335,45.6286113 11.731274,48.4765981 13.3506916,51.0448041 L7.8233836,56.5719969 C7.03116147,57.3642025 7.03116147,58.6475453 7.8233836,59.4397509 L13.559011,65.1752588 C14.3512331,65.9674644 15.6346026,65.9674644 16.4268247,65.1752588 L21.9541326,59.648066 C24.5223921,61.2674499 27.3704383,62.4747651 30.4161598,63.1696557 L30.4161598,70.9715887 C30.4161598,72.0907122 31.323946,73 32.4446134,73 L40.5553866,73 C41.676054,73 42.5838402,72.0922327 42.5838402,70.9715887 L42.5838402,63.1696557 C45.6295617,62.4747651 48.4776079,61.2689704 51.0458674,59.648066 L56.5731753,65.1752588 C57.3653974,65.9674644 58.6487669,65.9674644 59.440989,65.1752588 L65.1766164,59.4397509 C65.9688385,58.6475453 65.9688385,57.3642025 65.1766164,56.5719969 L59.6493084,51.0448041 C61.268726,48.4765981 62.4745459,45.6286113 63.1709715,42.5829532 L70.973067,42.5829532 C72.0922138,42.5829532 73,41.6751859 73,40.5545419 L73,32.4439376 C72.9969588,31.3248141 72.0891726,30.4170468 70.9700258,30.4170468 Z M36.4984794,48.0690912 C30.1074821,48.0690912 24.9283869,42.8885834 24.9283869,36.4992397 C24.9283869,30.1098961 30.1090027,24.9293882 36.4984794,24.9293882 C42.8879562,24.9293882 48.0685719,30.1098961 48.0685719,36.4992397 C48.0685719,42.8885834 42.8879562,48.0690912 36.4984794,48.0690912 Z" id="Shape" fill="#D1DAE4"></path>
                    <path d="M50.3049984,24.196322 C45.2988363,19.190175 38.0498776,17.8039959 31.7955504,20.025783 C31.2359764,20.2253088 31.073955,20.9424015 31.4940105,21.3624558 L41.047274,30.9156904 L39.0715127,38.070115 L31.9170665,40.0458704 L22.363803,30.4926357 C21.9422472,30.0710812 21.2251524,30.2361026 21.025626,30.7956749 C18.613307,37.5840522 20.4555506,45.5455811 26.5613582,50.5367262 C31.0394504,54.1971992 36.9697347,55.3148437 42.3389449,53.8926599 L60.4463397,72 L73,59.4463776 L54.9016064,41.3450383 C56.4828155,35.4222728 54.9526131,28.8424225 50.3049984,24.196322 Z" id="Path" fill="#FF5756" fill-rule="nonzero"></path>
                    <path d="M68,64.6886255 L65.6888011,67 L48.4786507,49.7900615 C47.8404498,49.1518122 47.8404498,48.1169364 48.4786507,47.478687 L48.4786507,47.478687 C49.1168515,46.8404377 50.1516487,46.8404377 50.7898496,47.478687 L68,64.6886255 Z" id="Path" fill="#EB0504" fill-rule="nonzero"></path>
                </g>
            </g>
        </g>
    </g>
</svg>