<?xml version="1.0" encoding="UTF-8"?>
<svg width="112px" height="115px" viewBox="0 0 112 115" version="1.1" xmlns="http://www.w3.org/2000/svg" xmlns:xlink="http://www.w3.org/1999/xlink">
    <title>8722A8A8-10A3-42D0-9648-9AFB737975F5</title>
    <defs>
        <path d="M56.906,114.812 C83.916038,114.812 105.812,92.916038 105.812,65.906 C105.812,60.7764848 112.464469,54.145677 111,49.5 C107.438621,38.20238 105.389224,9.10331989 95.5,3 C88.0429729,-1.6022441 40.4062776,3 31,3 C8.71858212,3 6.4001189,33.1200339 0.5,53.5 C-0.752138483,57.8250891 8,61.1773799 8,65.906 C8,92.916038 29.895962,114.812 56.906,114.812 Z" id="path-1"></path>
    </defs>
    <g id="Primary-Navigation-Pages" stroke="none" stroke-width="1" fill="none" fill-rule="evenodd">
        <g id="Pricing-3-Month" transform="translate(-716.000000, -218.000000)">
            <g id="iconfinder___library_book_shelf_archive_3371910-copy-6" transform="translate(716.000000, 218.000000)">
                <circle id="Mask" fill="#FFFFFF" fill-rule="nonzero" cx="56.906" cy="65.906" r="48.906"></circle>
                <g id="iconfinder__computer_share_screen_share_5110608-(1)">
                    <mask id="mask-2" fill="white">
                        <use xlink:href="#path-1"></use>
                    </mask>
                    <g id="Mask" fill-rule="nonzero"></g>
                    <g mask="url(#mask-2)">
                        <g transform="translate(6.000000, 5.000000)">
                            <rect id="Rectangle" fill="#DB0F37" fill-rule="nonzero" x="40" y="100" width="22.4356" height="13.872144"></rect>
                            <path d="M87.638944,92.274168 L14.35128,92.274168 L14.35128,47.915568 C14.35128,45.9637896 15.9481896,44.36688 17.899968,44.36688 L84.090256,44.36688 C86.0420344,44.36688 87.638944,45.9637896 87.638944,47.915568 L87.638944,92.274168 Z" id="Path" fill="#DBE2EA" fill-rule="nonzero"></path>
                            <path d="M87.638944,87.168088 L14.35128,87.168088 L14.35128,96.772848 C14.35128,98.7246264 15.9481896,100.321536 17.899968,100.321536 L84.090256,100.321536 C86.0420344,100.321536 87.638944,98.7246264 87.638944,96.772848 L87.638944,87.168088 Z" id="Path" fill="#FF4D5B" fill-rule="nonzero"></path>
                            <g id="Avatars" stroke-width="1" fill="none" fill-rule="evenodd">
                                <g id="Group-24" fill-rule="nonzero">
                                    <g id="Group-17" transform="translate(0.000000, 28.000000)">
                                        <g id="Group-11" transform="translate(74.000000, 0.000000)">
                                            <path d="M14.0668573,-1.94980234e-13 C6.33008578,-1.94980234e-13 -3.10264664e-12,6.33008578 -3.10264664e-12,14.0668573 C-3.10264664e-12,21.8036288 6.33008578,28.1337146 14.0668573,28.1337146 C21.8036288,28.1337146 28.1337146,21.8036288 28.1337146,14.0668573 C28.1337146,6.33008578 21.8036288,-1.94980234e-13 14.0668573,-1.94980234e-13 Z" id="Path" fill="#FF4D5B"></path>
                                            <path d="M14.0668573,28.1337146 C17.5835716,28.1337146 20.8658383,26.9614765 23.2103145,24.8514479 C22.272524,21.1002859 18.5213621,19.6936002 14.0668573,19.6936002 C9.61235248,19.6936002 5.86119054,21.1002859 4.92340005,24.8514479 C7.26787626,26.9614765 10.550143,28.1337146 14.0668573,28.1337146 Z" id="Path" fill="#DB0F37"></path>
                                            <circle id="Oval" fill="#FFFFFF" cx="14.0668573" cy="11.7223811" r="4.68895243"></circle>
                                        </g>
                                        <g id="Group-13">
                                            <path d="M14.0668573,-1.94980234e-13 C6.33008578,-1.94980234e-13 -3.10264664e-12,6.33008578 -3.10264664e-12,14.0668573 C-3.10264664e-12,21.8036288 6.33008578,28.1337146 14.0668573,28.1337146 C21.8036288,28.1337146 28.1337146,21.8036288 28.1337146,14.0668573 C28.1337146,6.33008578 21.8036288,-1.94980234e-13 14.0668573,-1.94980234e-13 Z" id="Path" fill="#FF4D5B"></path>
                                            <path d="M14.0668573,28.1337146 C17.5835716,28.1337146 20.8658383,26.9614765 23.2103145,24.8514479 C22.272524,21.1002859 18.5213621,19.6936002 14.0668573,19.6936002 C9.61235248,19.6936002 5.86119054,21.1002859 4.92340005,24.8514479 C7.26787626,26.9614765 10.550143,28.1337146 14.0668573,28.1337146 Z" id="Path" fill="#DB0F37"></path>
                                            <circle id="Oval" fill="#FFFFFF" cx="14.0668573" cy="11.7223811" r="4.68895243"></circle>
                                        </g>
                                    </g>
                                    <g id="Group-14" transform="translate(37.000000, 0.000000)">
                                        <path d="M14.0668573,-4.96584107e-13 C6.33008578,-4.96584107e-13 -3.10365067e-12,6.33008578 -3.10365067e-12,14.0668573 C-3.10365067e-12,21.8036288 6.33008578,28.1337146 14.0668573,28.1337146 C21.8036288,28.1337146 28.1337146,21.8036288 28.1337146,14.0668573 C28.1337146,6.33008578 21.8036288,-4.96584107e-13 14.0668573,-4.96584107e-13 Z" id="Path" fill="#FF4D5B"></path>
                                        <path d="M14.0668573,28.1337146 C17.5835716,28.1337146 20.8658383,26.9614765 23.2103145,24.8514479 C22.272524,21.1002859 18.5213621,19.6936002 14.0668573,19.6936002 C9.61235248,19.6936002 5.86119054,21.1002859 4.92340005,24.8514479 C7.26787626,26.9614765 10.550143,28.1337146 14.0668573,28.1337146 Z" id="Path" fill="#DB0F37"></path>
                                        <circle id="Oval" fill="#FFFFFF" cx="14.0668573" cy="11.7223811" r="4.68895243"></circle>
                                    </g>
                                </g>
                            </g>
                            <g id="Group" stroke-width="1" fill="none" fill-rule="evenodd" transform="translate(49.220768, 37.694704)" stroke-linecap="round" stroke-linejoin="round">
                                <line x1="1.774344" y1="1.774344" x2="1.774344" y2="1.774344" id="Path" stroke="#FFFFFF" stroke-width="3.548688"></line>
                                <line x1="1.774344" y1="23.066472" x2="1.774344" y2="23.066472" id="Path" stroke="#FFFFFF" stroke-width="3.548688"></line>
                                <line x1="1.774344" y1="24.9212136" x2="1.774344" y2="30.42168" id="Path" stroke="#FFFFFF" stroke-width="3.548688" stroke-dasharray="0.2090177136659622,10.45283843994141"></line>
                            </g>
                            <g id="Group" stroke-width="1" fill="none" fill-rule="evenodd" transform="translate(49.220768, 48.340768)" stroke-linecap="round" stroke-linejoin="round">
                                <line x1="20.404956" y1="0.887172" x2="20.404956" y2="0.887172" id="Path" stroke="#FFFFFF" stroke-width="3.548688"></line>
                                <line x1="13.0583672" y1="21.1233128" x2="8.2676384" y2="24.1396976" id="Path" stroke="#FFFFFF" stroke-width="3.548688" stroke-dasharray="0.2152279257774353,10.75944448471069"></line>
                                <line x1="1.774344" y1="12.420408" x2="1.774344" y2="12.420408" id="Path" stroke="#FFFFFF" stroke-width="3.548688"></line>
                            </g>
                            <g id="Group" stroke-width="1" fill="none" fill-rule="evenodd" transform="translate(31.477328, 48.340768)" stroke-linecap="round" stroke-linejoin="round">
                                <line x1="0.887172" y1="0.887172" x2="0.887172" y2="0.887172" id="Path" stroke="#FFFFFF" stroke-width="3.548688"></line>
                                <line x1="8.2337608" y1="21.1233128" x2="13.0244896" y2="24.1396976" id="Path" stroke="#FFFFFF" stroke-width="3.548688" stroke-dasharray="0.2152279257774353,10.75944448471069"></line>
                                <line x1="19.517784" y1="12.420408" x2="19.517784" y2="12.420408" id="Path" stroke="#FFFFFF" stroke-width="3.548688"></line>
                            </g>
                        </g>
                    </g>
                </g>
            </g>
        </g>
    </g>
</svg>