<?xml version="1.0" encoding="UTF-8"?>
<svg width="69px" height="71px" viewBox="0 0 69 71" version="1.1" xmlns="http://www.w3.org/2000/svg" xmlns:xlink="http://www.w3.org/1999/xlink">
    <title>0B33348B-589F-4F27-9632-A3FD64C97227</title>
    <g id="Secondary-Navigation-Pages" stroke="none" stroke-width="1" fill="none" fill-rule="evenodd">
        <g id="Support-Select-Copy" transform="translate(-402.000000, -1234.000000)">
            <g id="Computer" transform="translate(402.000000, 1234.000000)">
                <rect id="Rectangle" fill="#EB0504" fill-rule="nonzero" x="27.0681818" y="51.95" width="14.7727273" height="13.2954545"></rect>
                <path d="M68.9090909,43.5636364 L-4.12114787e-13,43.5636364 L-4.12114787e-13,3.2974026 C-4.12114787e-13,1.59383117 1.29204545,0.2 2.87121212,0.2 L66.0378788,0.2 C67.6170455,0.2 68.9090909,1.59383117 68.9090909,3.2974026 L68.9090909,43.5636364 Z" id="Path" fill="#DBE2EA" fill-rule="nonzero" style="mix-blend-mode: multiply;"></path>
                <path d="M68.9090909,43.5636364 L0,43.5636364 L0,49.4727273 C0,51.0977273 1.29204545,52.4272727 2.87121212,52.4272727 L66.0378788,52.4272727 C67.6170455,52.4272727 68.9090909,51.0977273 68.9090909,49.4727273 L68.9090909,43.5636364 Z" id="Path" fill="#FF5756" fill-rule="nonzero"></path>
                <path d="M47.75,63.7681818 L21.1590909,63.7681818 C19.5340909,63.7681818 18.2045455,65.0977273 18.2045455,66.7227273 L18.2045455,70.2 L50.7045455,70.2 L50.7045455,66.7227273 C50.7045455,65.0977273 49.375,63.7681818 47.75,63.7681818 Z" id="Path" fill="#FF5756" fill-rule="nonzero"></path>
                <rect id="Rectangle" fill="#FFFFFF" x="20.4545455" y="8.2" width="28" height="28" rx="14"></rect>
                <polygon id="Path" fill="#000F38" fill-rule="nonzero" points="39.2162192 17.0712309 42.0509019 19.9059136 32.8855845 29.0712309 26.8581891 23.299175 29.6634991 20.4354211 32.8566787 23.4306269"></polygon>
            </g>
        </g>
    </g>
</svg>